<?xml version="1.0" encoding="UTF-8" standalone="no" ?>
<!DOCTYPE svg PUBLIC "-//W3C//DTD SVG 1.1//EN" "http://www.w3.org/Graphics/SVG/1.1/DTD/svg11.dtd">
<svg xmlns="http://www.w3.org/2000/svg" xmlns:xlink="http://www.w3.org/1999/xlink" version="1.1" width="120" height="120" viewBox="0 0 120 120" xml:space="preserve">
<desc>Created with Fabric.js 3.6.3</desc>
<defs>
</defs>
<g transform="matrix(0.2 0 0 0.26 59.5 61)"  >
<path style="stroke: none; stroke-width: 1; stroke-dasharray: none; stroke-linecap: butt; stroke-dashoffset: 0; stroke-linejoin: miter; stroke-miterlimit: 4; fill: rgb(211,244,255); fill-rule: evenodd; opacity: 1;"  transform=" translate(-256, -196.09)" d="M 326.67 35.18 h 142.72 c 7.37 0 13.4 6.05 13.4 13.39 v 110.64 c 0 7.34 -6.05 13.39 -13.4 13.39 H 326.67 c -7.34 0 -13.39 -6.02 -13.39 -13.39 V 48.57 c 0 -7.36 6.02 -13.39 13.39 -13.39 z M 94.29 205.03 c -22.67 -0.04 -45.01 -3.28 -67.01 -9.83 c 20.04 21.49 69.45 30 126.76 32.62 c 11.87 -0.25 21.25 1.98 20.17 14.68 v 119.59 c 4.2 0.02 16.84 -5.59 16.9 -16.91 v -11.96 c 14.38 -6.56 28.87 -16.14 37.67 -27.42 c 9.39 -12.04 15.2 -27.05 15.85 -45.51 l 0.03 -0.26 v -84.66 c 0.79 -12.1 3.65 -21.54 8.94 -28.05 c 4.38 -5.39 10.74 -8.99 19.32 -10.68 c 0.87 1.61 2.03 3.07 3.37 4.35 c 2.18 2.07 4.91 3.69 7.77 4.63 v 82.32 c 0 5.99 2.45 11.43 6.4 15.37 c 3.94 3.94 9.38 6.39 15.37 6.39 h 184.4 c 5.98 0 11.43 -2.45 15.37 -6.39 c 3.94 -3.95 6.4 -9.39 6.4 -15.37 V 21.76 c 0 -5.97 -2.45 -11.42 -6.4 -15.37 C 501.66 2.45 496.22 0 490.23 0 h -184.4 c -5.99 0 -11.43 2.45 -15.38 6.39 c -3.94 3.94 -6.39 9.39 -6.39 15.37 v 80.05 c -2.86 0.95 -5.59 2.57 -7.77 4.64 c -3.11 2.96 -5.2 6.89 -5.2 11.27 v 1.93 c -13.37 2.31 -23.46 8.04 -30.7 16.94 c -7.73 9.52 -11.81 22.37 -12.77 38.27 l -0.03 0.51 l 0.02 84.66 c -0.55 14.43 -5.04 26.06 -12.24 35.3 c -6.22 7.98 -14.57 14.31 -24.26 19.24 V 182 c -16.37 -31.41 -141.98 -31.18 -180.57 -9.99 c -11.6 6.36 -10.51 9.21 -10.51 20.72 v 135.14 c 1.89 21.7 39.13 41.76 55.95 47.66 c 13.4 4.7 29.56 8.87 48.32 11.91 c 5.11 0.83 10.42 1.57 15.91 2.21 c 10.08 1.19 20.81 2.04 32.15 2.5 c 11.15 0.5 12.5 -5.9 11.97 -17.07 V 247.32 c -0.06 -11.02 -5.99 -13.91 -15.73 -13.63 c -14.98 -0.74 -29.97 -1.88 -45.03 -4.02 c -27.97 -3.98 -68.78 -11.08 -88.31 -33.65 c -2.87 -4.24 -4.28 -7.9 -4.31 -11.03 c -0.08 -8.59 15.27 -13.93 32.95 -17.17 c 19.99 -3.66 42.96 -4.65 50.05 -4.64 c 119.57 0.2 112.06 42.08 0.34 41.85 z m 302.69 -9.06 h 2.1 c 7.39 0 13.43 6.07 13.43 13.43 c 0 7.36 -6.07 13.43 -13.43 13.43 h -2.1 c -7.36 0 -13.43 -6.04 -13.43 -13.43 s 6.05 -13.43 13.43 -13.43 z m -72.63 -0.32 h 28.49 c 3.77 0 7.21 1.55 9.7 4.04 c 2.5 2.48 4.05 5.93 4.05 9.71 c 0 3.77 -1.55 7.2 -4.04 9.7 c -2.5 2.5 -5.94 4.05 -9.71 4.05 h -28.49 c -3.78 0 -7.22 -1.55 -9.71 -4.04 l -0.15 -0.17 c -2.4 -2.47 -3.89 -5.85 -3.89 -9.54 c 0 -3.79 1.55 -7.23 4.04 -9.72 s 5.93 -4.03 9.71 -4.03 z m 118.87 0 h 28.49 c 3.78 0 7.22 1.55 9.71 4.04 c 2.49 2.48 4.04 5.93 4.04 9.71 c 0 3.77 -1.55 7.2 -4.04 9.7 c -2.5 2.5 -5.94 4.05 -9.71 4.05 h -28.49 c -3.78 0 -7.22 -1.55 -9.71 -4.04 l -0.15 -0.17 c -2.4 -2.47 -3.89 -5.85 -3.89 -9.54 c 0 -3.79 1.55 -7.23 4.04 -9.72 s 5.93 -4.03 9.71 -4.03 z m 28.49 5.35 h -28.49 c -2.31 0 -4.41 0.94 -5.93 2.47 a 8.377 8.377 0 0 0 -2.47 5.93 c 0 2.25 0.9 4.3 2.35 5.81 l 0.12 0.11 c 1.53 1.53 3.63 2.48 5.93 2.48 h 28.49 c 2.31 0 4.41 -0.95 5.93 -2.47 a 8.394 8.394 0 0 0 2.47 -5.93 c 0 -2.31 -0.95 -4.41 -2.47 -5.93 a 8.377 8.377 0 0 0 -5.93 -2.47 z m -118.87 0 h -28.49 c -2.31 0 -4.41 0.94 -5.93 2.47 a 8.377 8.377 0 0 0 -2.47 5.93 c 0 2.25 0.9 4.3 2.35 5.81 l 0.12 0.11 c 1.53 1.53 3.63 2.48 5.93 2.48 h 28.49 c 2.31 0 4.41 -0.95 5.93 -2.47 a 8.394 8.394 0 0 0 2.47 -5.93 c 0 -2.31 -0.95 -4.41 -2.47 -5.93 a 8.335 8.335 0 0 0 -5.93 -2.47 z M 490.23 8.92 h -184.4 c -3.53 0 -6.75 1.45 -9.07 3.77 c -2.33 2.33 -3.78 5.54 -3.78 9.07 v 83.6 a 4.473 4.473 0 0 1 -4.02 4.43 c -2.31 0.22 -4.73 1.39 -6.54 3.1 c -1.44 1.38 -2.41 3.08 -2.41 4.83 v 12 c 0 1.75 0.97 3.45 2.41 4.82 c 1.73 1.65 4.03 2.78 6.25 3.07 c 2.39 0.08 4.31 2.05 4.31 4.46 v 85.87 c 0 3.53 1.45 6.74 3.78 9.07 s 5.54 3.78 9.07 3.78 h 184.4 c 3.52 0 6.74 -1.46 9.07 -3.79 s 3.78 -5.54 3.78 -9.06 V 21.76 c 0 -3.52 -1.45 -6.73 -3.78 -9.06 s -5.54 -3.78 -9.07 -3.78 z M 327.37 110.4 h 11.59 l 5.95 -13.77 c 0.19 -0.45 0.72 -0.66 1.17 -0.47 c 0.17 0.08 0.3 0.2 0.4 0.35 l 13.12 20.79 l 11.95 -28.16 c 0.19 -0.45 0.71 -0.66 1.16 -0.47 c 0.21 0.08 0.36 0.24 0.45 0.42 l 14.32 29.07 l 6.22 -7.36 c 0.17 -0.21 0.42 -0.31 0.68 -0.31 l 6.32 -0.01 c 0.3 0 0.57 0.16 0.73 0.4 l 5.91 7.02 c 0.32 0.38 0.27 0.94 -0.11 1.25 c -0.16 0.14 -0.37 0.21 -0.57 0.21 l -8.6 0.01 l -11.67 13.82 c -0.32 0.37 -0.88 0.42 -1.26 0.1 a 0.896 0.896 0 0 1 -0.24 -0.31 l -11.99 -24.37 l -11.09 26.15 c -0.19 0.45 -0.71 0.66 -1.17 0.47 a 0.913 0.913 0 0 1 -0.4 -0.35 l -13.2 -20.9 l -2.05 4.76 a 0.89 0.89 0 0 1 -0.82 0.54 h -16.8 c -0.49 0 -0.89 -0.4 -0.89 -0.89 v -7.1 c 0 -0.49 0.4 -0.89 0.89 -0.89 z M 429.8 81.22 c 4.52 -4.71 7.68 -8.78 14.64 -9.58 c 13.07 -1.51 25.09 11.87 18.49 25.04 c -1.88 3.76 -5.7 8.22 -9.93 12.59 c -4.65 4.81 -9.78 9.52 -13.38 13.09 l -9.82 9.74 l -8.11 -7.82 c -9.75 -9.39 -25.66 -21.22 -26.19 -35.87 c -0.36 -10.26 7.74 -16.84 17.05 -16.72 c 8.33 0.11 11.83 4.25 17.25 9.53 z" stroke-linecap="round" />
</g>
</svg>