<?xml version="1.0" encoding="UTF-8" standalone="no" ?>
<!DOCTYPE svg PUBLIC "-//W3C//DTD SVG 1.1//EN" "http://www.w3.org/Graphics/SVG/1.1/DTD/svg11.dtd">
<svg xmlns="http://www.w3.org/2000/svg" xmlns:xlink="http://www.w3.org/1999/xlink" version="1.1" width="120" height="120" viewBox="0 0 120 120" xml:space="preserve">
<desc>Created with Fabric.js 3.6.3</desc>
<defs>
</defs>
<g transform="matrix(0.2 0 0 0.22 61 60)"  >
<path style="stroke: none; stroke-width: 1; stroke-dasharray: none; stroke-linecap: butt; stroke-dashoffset: 0; stroke-linejoin: miter; stroke-miterlimit: 4; fill: rgb(211,244,255); fill-rule: evenodd; opacity: 1;"  transform=" translate(-256, -244.67)" d="M 331.41 483.51 v -239.2 a 7.347 7.347 0 0 0 -2.01 -3.78 a 7.224 7.224 0 0 0 -5.11 -2.15 H 187.75 a 7.338 7.338 0 0 0 -7.26 7.26 v 236.47 c 0 1.91 0.77 3.75 2.15 5.08 a 6.81 6.81 0 0 0 4.96 2.15 h 136.82 c 1.92 -0.01 3.77 -0.79 5.11 -2.15 a 7.775 7.775 0 0 0 1.98 -3.82 l -0.1 0.14 z m 88.95 -198.87 c -2.3 0 -4.18 -1.87 -4.18 -4.18 c 0 -2.3 1.88 -4.17 4.18 -4.17 h 33.02 a 4.176 4.176 0 1 1 0 8.35 h -33.02 z m 0 -23.23 c -2.3 0 -4.18 -1.87 -4.18 -4.18 c 0 -2.3 1.88 -4.17 4.18 -4.17 h 56.08 a 4.176 4.176 0 0 1 0 8.35 h -56.08 z m 0 -23.23 c -2.3 0 -4.18 -1.87 -4.18 -4.17 c 0 -2.31 1.88 -4.18 4.18 -4.18 h 65.59 a 4.176 4.176 0 0 1 0 8.35 h -65.59 z m 43.41 -70.13 c 1.16 0 2.21 0.48 2.97 1.24 l 43.8 37.85 c 0.63 0.54 1.06 1.24 1.28 1.98 c 0.2 0.7 0.18 1.36 0.18 2.08 v 93.92 c 0 2.22 -0.94 4.27 -2.4 5.74 c -1.49 1.49 -3.54 2.42 -5.76 2.42 H 402.48 c -2.23 0 -4.29 -0.92 -5.77 -2.4 a 8.15 8.15 0 0 1 -2.39 -5.76 V 176.21 c 0 -2.24 0.92 -4.29 2.4 -5.75 a 8.074 8.074 0 0 1 5.76 -2.41 h 61.29 z m 39.84 46.55 l -39.73 1.09 c -2.3 0.06 -4.23 -1.76 -4.29 -4.06 l -0.02 -35.19 H 402.7 V 304.9 h 100.91 v -90.3 z m -6.68 -8.18 l -28.97 -25.02 v 25.82 l 28.97 -0.8 z M 26.05 284.64 a 4.176 4.176 0 1 1 0 -8.35 h 33.02 a 4.176 4.176 0 0 1 0 8.35 H 26.05 z m 0 -23.23 a 4.176 4.176 0 1 1 0 -8.35 h 56.07 c 2.3 0 4.18 1.87 4.18 4.17 c 0 2.31 -1.88 4.18 -4.18 4.18 H 26.05 z m 0 -23.23 a 4.176 4.176 0 1 1 0 -8.35 h 65.58 c 2.3 0 4.18 1.87 4.18 4.18 c 0 2.3 -1.88 4.17 -4.18 4.17 H 26.05 z m 46.37 -68.89 l 43.81 37.85 c 0.72 0.62 1.17 1.44 1.35 2.3 c 0.13 0.69 0.09 1.28 0.1 2 v 93.68 c 0 4.44 -3.7 8.16 -8.15 8.16 H 8.16 c -4.48 0 -8.16 -3.68 -8.16 -8.16 V 176.21 c 0 -2.24 0.93 -4.29 2.41 -5.75 a 8.068 8.068 0 0 1 5.75 -2.41 H 68 c 0.48 0 0.97 0.02 1.45 0 c 1.16 0 2.21 0.48 2.97 1.24 z m 36.88 45.31 l -39.73 1.09 a 4.178 4.178 0 0 1 -4.29 -4.06 l -0.02 -35.19 H 8.39 V 304.9 H 109.3 v -90.3 z m -6.69 -8.18 L 73.64 181.4 v 25.82 l 28.97 -0.8 z m 147.84 16.35 c -0.5 -0.32 -0.97 -0.72 -1.39 -1.18 l -16.04 -17.37 c -2.76 -3.01 -2.57 -7.71 0.44 -10.48 c 3.01 -2.76 7.71 -2.57 10.47 0.44 l 4.64 5.02 v -31.26 c 0 -4.1 3.33 -7.43 7.43 -7.43 s 7.43 3.33 7.43 7.43 v 32.7 l 5.36 -4.47 a 7.404 7.404 0 0 1 10.42 0.96 a 7.392 7.392 0 0 1 -0.96 10.41 l -18.29 15.26 c -2.8 2.33 -6.83 2.25 -9.51 -0.03 z M 223.2 116.59 c -2.3 0 -4.17 -1.88 -4.17 -4.18 s 1.87 -4.18 4.17 -4.18 h 33.02 c 2.31 0 4.18 1.88 4.18 4.18 s -1.87 4.18 -4.18 4.18 H 223.2 z m 0 -23.23 a 4.174 4.174 0 0 1 0 -8.35 h 56.07 c 2.31 0 4.18 1.87 4.18 4.17 s -1.87 4.18 -4.18 4.18 H 223.2 z m 0 -23.23 a 4.176 4.176 0 0 1 0 -8.35 h 65.59 a 4.176 4.176 0 0 1 0 8.35 H 223.2 z m 46.38 -68.9 l 43.8 37.86 a 4.07 4.07 0 0 1 1.35 2.27 c 0.11 0.5 0.11 1 0.11 1.51 v 94.2 c 0 2.22 -0.94 4.26 -2.4 5.74 c -1.49 1.48 -3.54 2.42 -5.76 2.42 H 205.31 c -2.22 0 -4.28 -0.93 -5.76 -2.4 a 8.15 8.15 0 0 1 -2.39 -5.76 V 8.15 c 0 -2.24 0.92 -4.29 2.4 -5.75 a 8.06 8.06 0 0 1 5.75 -2.4 h 60.68 l 0.31 0.01 l 0.31 -0.01 c 1.16 0 2.21 0.47 2.97 1.23 z m 36.87 45.32 l -39.73 1.09 c -2.3 0.06 -4.23 -1.76 -4.29 -4.07 l -0.02 -35.19 h -56.87 v 128.46 h 100.91 V 46.55 z m -6.68 -8.18 L 270.8 13.34 v 25.83 l 28.97 -0.8 z M 147.26 395.44 c -0.35 0.5 -0.76 0.96 -1.24 1.38 l -17.37 15.07 c -3.09 2.67 -7.78 2.33 -10.45 -0.76 c -2.67 -3.09 -2.33 -7.77 0.76 -10.44 l 4.85 -4.21 c -5.75 -0.14 -11.53 -0.89 -17.2 -2.3 c -7.11 -1.75 -14.11 -4.54 -20.8 -8.4 c -8.65 -4.99 -16 -11.32 -21.91 -18.53 a 80.083 80.083 0 0 1 -13.88 -25.16 c -1.3 -3.87 0.79 -8.07 4.67 -9.37 c 3.87 -1.29 8.07 0.8 9.37 4.68 a 65.197 65.197 0 0 0 11.33 20.44 a 64.86 64.86 0 0 0 17.79 15.12 c 5.42 3.13 11.14 5.4 16.97 6.84 c 4.6 1.14 9.28 1.75 13.92 1.87 l -3.17 -3.6 c -2.71 -3.07 -2.41 -7.76 0.66 -10.47 c 3.08 -2.7 7.77 -2.4 10.47 0.67 l 15.26 17.33 c 2.51 2.85 2.44 7.09 -0.03 9.84 z m 218.72 1.38 c -0.48 -0.42 -0.89 -0.88 -1.24 -1.38 c -2.46 -2.75 -2.54 -6.99 -0.03 -9.84 l 15.26 -17.34 a 7.408 7.408 0 0 1 10.46 -0.66 a 7.4 7.4 0 0 1 0.67 10.46 l -3.17 3.61 c 4.64 -0.12 9.32 -0.73 13.92 -1.87 a 65.23 65.23 0 0 0 16.98 -6.84 a 64.892 64.892 0 0 0 17.92 -15.25 a 64.983 64.983 0 0 0 11.3 -20.69 a 7.427 7.427 0 0 1 9.37 -4.73 c 3.9 1.28 6.01 5.48 4.73 9.37 a 79.914 79.914 0 0 1 -13.92 25.39 c -5.95 7.32 -13.35 13.72 -22.04 18.73 c -6.68 3.86 -13.69 6.65 -20.79 8.4 a 79.401 79.401 0 0 1 -17.21 2.3 l 4.85 4.21 c 3.09 2.67 3.43 7.35 0.76 10.44 s -7.36 3.43 -10.44 0.76 l -17.38 -15.07 z M 256 414.14 c 11.68 0 21.15 9.47 21.15 21.15 c 0 11.68 -9.47 21.15 -21.15 21.15 c -11.68 0 -21.15 -9.47 -21.15 -21.15 c 0 -11.68 9.47 -21.15 21.15 -21.15 z m 48.65 -134.31 v 18.16 h -97.24 v -18.16 h 97.24 z m 0 50.24 v 18.16 h -47.92 l -0.47 -1.6 l -0.62 1.5 h -48.23 v -18.06 h 97.24 z" stroke-linecap="round" />
</g>
</svg>