<?xml version="1.0" encoding="UTF-8" standalone="no" ?>
<!DOCTYPE svg PUBLIC "-//W3C//DTD SVG 1.1//EN" "http://www.w3.org/Graphics/SVG/1.1/DTD/svg11.dtd">
<svg xmlns="http://www.w3.org/2000/svg" xmlns:xlink="http://www.w3.org/1999/xlink" version="1.1" width="120" height="120" viewBox="0 0 120 120" xml:space="preserve">
<desc>Created with Fabric.js 3.6.3</desc>
<defs>
</defs>
<g transform="matrix(0.86 0 0 0.88 62 59.5)" id="Layer_1"  >
<path style="stroke: none; stroke-width: 1; stroke-dasharray: none; stroke-linecap: butt; stroke-dashoffset: 0; stroke-linejoin: miter; stroke-miterlimit: 4; fill: rgb(211,244,255); fill-rule: nonzero; opacity: 1;"  transform=" translate(-61.44, -61.44)" d="M 109.465 89.503 c 0.182 0 0.359 0.019 0.533 0.053 c 1.146 -1.998 2.191 -4.095 3.135 -6.286 c 0.018 -0.044 0.037 -0.086 0.059 -0.128 c 1.418 -3.345 2.488 -6.819 3.209 -10.419 c 0.559 -2.793 0.904 -5.657 1.035 -8.591 h -16.893 c -0.307 8.574 -2.867 17.03 -7.639 25.371 H 109.465 L 109.465 89.503 z M 106.52 94.889 H 89.506 c -5.164 7.481 -12.121 14.87 -20.838 22.167 c 1.367 -0.17 2.719 -0.388 4.055 -0.655 c 3.646 -0.729 7.164 -1.817 10.549 -3.264 l -0.002 -0.004 c 3.441 -1.48 6.646 -3.212 9.609 -5.199 c 2.969 -1.992 5.721 -4.255 8.25 -6.795 l 0.01 -0.01 l 0 0 C 103.096 99.18 104.889 97.099 106.52 94.889 L 106.52 94.889 z M 54.21 117.055 c -8.716 -7.296 -15.673 -14.685 -20.838 -22.166 H 16.361 c 1.631 2.21 3.423 4.291 5.379 6.24 l 0.01 0.011 v -0.001 c 2.53 2.54 5.282 4.803 8.25 6.795 c 2.962 1.987 6.167 3.719 9.609 5.199 c 0.043 0.019 0.086 0.038 0.128 0.059 c 3.345 1.419 6.819 2.488 10.42 3.209 C 51.493 116.668 52.843 116.886 54.21 117.055 L 54.21 117.055 z M 12.852 89.503 h 17.122 c -4.771 -8.341 -7.332 -16.797 -7.637 -25.371 H 5.445 c 0.13 2.934 0.475 5.797 1.034 8.59 c 0.729 3.646 1.818 7.164 3.264 10.549 l 0.004 -0.001 C 10.682 85.442 11.716 87.521 12.852 89.503 L 12.852 89.503 z M 5.445 58.747 h 16.997 c 0.625 -8.4 3.412 -16.857 8.407 -25.371 H 12.852 c -1.136 1.982 -2.17 4.061 -3.105 6.234 c -0.019 0.043 -0.039 0.086 -0.059 0.127 C 8.269 43.083 7.2 46.557 6.479 50.157 C 5.92 52.95 5.575 55.814 5.445 58.747 L 5.445 58.747 z M 16.361 27.991 h 17.938 c 5.108 -7.361 11.862 -14.765 20.29 -22.212 c -1.496 0.175 -2.973 0.408 -4.431 0.7 c -3.647 0.729 -7.164 1.818 -10.549 3.264 l 0.001 0.003 c -3.442 1.481 -6.647 3.212 -9.609 5.2 c -2.968 1.992 -5.72 4.255 -8.25 6.794 l -0.011 0.01 h 0 C 19.784 23.7 17.992 25.78 16.361 27.991 L 16.361 27.991 z M 68.289 5.778 c 8.428 7.447 15.182 14.851 20.291 22.212 h 17.939 c -1.631 -2.21 -3.424 -4.291 -5.381 -6.24 l -0.01 -0.01 l 0 0 c -2.529 -2.54 -5.281 -4.802 -8.25 -6.794 c -2.963 -1.988 -6.168 -3.719 -9.609 -5.2 c -0.043 -0.018 -0.086 -0.038 -0.127 -0.059 c -3.346 -1.418 -6.82 -2.488 -10.42 -3.208 C 71.264 6.187 69.785 5.954 68.289 5.778 L 68.289 5.778 z M 110.027 33.376 H 92.029 c 4.996 8.514 7.783 16.971 8.408 25.371 h 16.998 c -0.131 -2.934 -0.477 -5.797 -1.035 -8.59 c -0.73 -3.646 -1.818 -7.164 -3.264 -10.549 l -0.004 0.002 C 112.197 37.437 111.164 35.358 110.027 33.376 L 110.027 33.376 z M 49.106 1.198 C 53.098 0.399 57.21 0 61.44 0 c 4.23 0 8.341 0.399 12.333 1.198 c 3.934 0.788 7.758 1.97 11.473 3.547 c 0.051 0.018 0.1 0.037 0.148 0.058 c 3.703 1.594 7.197 3.485 10.471 5.684 c 3.268 2.192 6.291 4.677 9.066 7.462 c 2.785 2.775 5.27 5.799 7.461 9.065 c 2.197 3.275 4.09 6.768 5.684 10.473 l -0.004 0.001 l 0.004 0.009 c 1.607 3.758 2.809 7.628 3.605 11.609 c 0.799 3.992 1.197 8.104 1.197 12.334 c 0 4.23 -0.398 8.343 -1.197 12.335 c -0.787 3.932 -1.971 7.758 -3.547 11.472 c -0.018 0.05 -0.037 0.099 -0.059 0.147 c -1.594 3.705 -3.486 7.197 -5.684 10.472 c -2.191 3.267 -4.676 6.29 -7.461 9.065 c -2.775 2.785 -5.799 5.271 -9.066 7.462 c -3.273 2.198 -6.768 4.091 -10.471 5.684 l -0.002 -0.004 l -0.01 0.004 c -3.758 1.606 -7.629 2.808 -11.609 3.604 c -3.992 0.799 -8.104 1.198 -12.333 1.198 c -4.229 0 -8.342 -0.399 -12.334 -1.198 c -3.933 -0.787 -7.758 -1.97 -11.474 -3.546 c -0.049 -0.019 -0.098 -0.037 -0.147 -0.059 c -3.705 -1.593 -7.197 -3.485 -10.472 -5.684 c -3.266 -2.191 -6.29 -4.677 -9.065 -7.462 c -2.785 -2.775 -5.27 -5.799 -7.461 -9.065 c -2.198 -3.274 -4.09 -6.767 -5.684 -10.472 l 0.004 -0.002 l -0.004 -0.009 c -1.606 -3.758 -2.808 -7.628 -3.604 -11.609 C 0.4 69.782 0 65.67 0 61.439 c 0 -4.229 0.4 -8.342 1.199 -12.334 c 0.787 -3.933 1.97 -7.758 3.546 -11.473 c 0.018 -0.049 0.037 -0.099 0.058 -0.147 c 1.594 -3.705 3.485 -7.198 5.684 -10.473 c 2.192 -3.266 4.677 -6.29 7.461 -9.065 c 2.775 -2.785 5.799 -5.27 9.065 -7.462 c 3.275 -2.198 6.768 -4.09 10.472 -5.684 l 0.001 0.004 l 0.009 -0.004 C 41.254 3.197 45.125 1.995 49.106 1.198 L 49.106 1.198 z M 64.133 9.268 v 18.723 h 17.826 C 77.275 21.815 71.34 15.575 64.133 9.268 L 64.133 9.268 z M 64.133 33.376 v 25.371 h 30.922 c -0.699 -8.332 -3.789 -16.788 -9.318 -25.371 H 64.133 L 64.133 33.376 z M 64.133 64.132 v 25.371 h 22.51 c 5.328 -8.396 8.189 -16.854 8.531 -25.371 H 64.133 L 64.133 64.132 z M 64.133 94.889 v 18.952 c 7.645 -6.283 13.902 -12.601 18.746 -18.952 H 64.133 L 64.133 94.889 z M 58.747 113.843 V 94.889 H 40 C 44.843 101.24 51.1 107.559 58.747 113.843 L 58.747 113.843 z M 58.747 89.503 V 64.132 H 27.706 c 0.341 8.518 3.201 16.975 8.531 25.371 H 58.747 L 58.747 89.503 z M 58.747 58.747 V 33.376 H 37.143 c -5.529 8.583 -8.619 17.04 -9.319 25.371 H 58.747 L 58.747 58.747 z M 58.747 27.991 V 9.266 C 51.54 15.573 45.604 21.815 40.92 27.991 H 58.747 L 58.747 27.991 z" stroke-linecap="round" />
</g>
</svg>