<?xml version="1.0" encoding="UTF-8" standalone="no" ?>
<!DOCTYPE svg PUBLIC "-//W3C//DTD SVG 1.1//EN" "http://www.w3.org/Graphics/SVG/1.1/DTD/svg11.dtd">
<svg xmlns="http://www.w3.org/2000/svg" xmlns:xlink="http://www.w3.org/1999/xlink" version="1.1" width="120" height="120" viewBox="0 0 120 120" xml:space="preserve">
<desc>Created with Fabric.js 3.6.3</desc>
<defs>
</defs>
<g transform="matrix(0.91 0 0 0.97 62.5 59.5)" id="Layer_1"  >
<path style="stroke: none; stroke-width: 1; stroke-dasharray: none; stroke-linecap: butt; stroke-dashoffset: 0; stroke-linejoin: miter; stroke-miterlimit: 4; fill: rgb(211,244,255); fill-rule: nonzero; opacity: 1;"  transform=" translate(-61.44, -56.76)" d="M 71.89 100.56 q -3.86 3.82 -8.37 7.63 c 1.26 -0.17 2.52 -0.38 3.74 -0.62 a 49.38 49.38 0 0 0 7.08 -2 c 0.14 0.22 0.28 0.43 0.43 0.64 c 0.37 0.51 0.71 0.94 1 1.27 l 0 0 l 0 0 a 16.4 16.4 0 0 0 2.13 2 a 55.29 55.29 0 0 1 -9.73 2.92 a 58.73 58.73 0 0 1 -22.83 0 a 53.48 53.48 0 0 1 -10.6 -3.27 a 0.26 0.26 0 0 1 -0.14 -0.07 A 62.1 62.1 0 0 1 25 103.89 A 54.41 54.41 0 0 1 16.6 97 a 52.69 52.69 0 0 1 -6.89 -8.38 A 59.79 59.79 0 0 1 4.46 79 A 55.79 55.79 0 0 1 1.12 68.22 a 58.73 58.73 0 0 1 0 -22.83 A 52.86 52.86 0 0 1 4.4 34.79 a 0.33 0.33 0 0 1 0.06 -0.14 A 60.34 60.34 0 0 1 9.71 25 a 54 54 0 0 1 6.89 -8.39 A 52.19 52.19 0 0 1 25 9.71 a 59.7 59.7 0 0 1 9.67 -5.25 A 54.52 54.52 0 0 1 45.39 1.12 a 58.73 58.73 0 0 1 22.83 0 a 53.89 53.89 0 0 1 10.6 3.27 a 0.28 0.28 0 0 1 0.13 0.07 a 61.75 61.75 0 0 1 9.68 5.25 A 54.41 54.41 0 0 1 97 16.59 A 52.27 52.27 0 0 1 103.89 25 a 58.19 58.19 0 0 1 5.25 9.67 a 54.52 54.52 0 0 1 3.34 10.74 l 0.12 0.6 l -5.42 -1.53 a 47 47 0 0 0 -2.6 -7.83 a 54.22 54.22 0 0 0 -2.87 -5.76 H 85.08 a 65.47 65.47 0 0 1 4.2 8.49 c -2.07 -0.57 -4.13 -1.13 -6.16 -1.66 a 65.73 65.73 0 0 0 -3.86 -6.83 h -20 v 3.41 l -0.61 0.22 a 13.48 13.48 0 0 0 -4.36 2.68 V 30.87 h -20 q -7.67 11.91 -8.62 23.44 H 51.24 q 1 2.47 2.09 5 H 25.62 c 0.31 7.87 3 15.67 7.88 23.44 H 54.32 V 61.56 c 1.59 3.63 3.27 7.29 5 11 V 82.73 h 4.76 c 0.77 1.66 1.53 3.31 2.29 5 H 59.29 v 17.51 a 123.84 123.84 0 0 0 10.53 -9.65 q 1.05 2.49 2.07 5 Z M 114.75 98 a 4.64 4.64 0 0 1 -1.17 0.79 l -0.08 0 a 4.14 4.14 0 0 1 -4.36 -0.6 l -11.6 -9.84 l -4 9.77 a 12.93 12.93 0 0 1 -1.19 2.25 a 9.1 9.1 0 0 1 -1.51 1.76 a 4.78 4.78 0 0 1 -7.5 -0.82 a 9.28 9.28 0 0 1 -0.92 -1.63 c -6.9 -17.49 -16.26 -34.9 -23.26 -52.4 A 3.11 3.11 0 0 1 62.65 43 c 16.77 3.1 38.5 10.19 55.55 14.71 c 5.3 1.4 6.16 6.07 2.25 9.69 a 12.21 12.21 0 0 1 -2 1.52 c -3 1.7 -6 3.67 -9 5.47 l 11.55 9.9 a 4.25 4.25 0 0 1 1 1.26 l 0 0.08 a 4.28 4.28 0 0 1 0.39 1.47 v 0 a 4.26 4.26 0 0 1 -0.16 1.54 a 4.39 4.39 0 0 1 -0.72 1.39 A 94.55 94.55 0 0 1 114.75 98 Z m -3 -3.84 l 5.59 -6.56 c -2.46 -2.11 -13 -10.29 -14.09 -12.26 a 2.41 2.41 0 0 1 0.83 -3.25 c 3.66 -2 8.36 -4.86 11.83 -7.17 a 8.38 8.38 0 0 0 1.22 -0.89 a 4.42 4.42 0 0 0 0.75 -0.87 l 0.16 -0.3 l -0.31 -0.18 a 3.92 3.92 0 0 0 -0.76 -0.26 L 65 48.6 L 86.83 97.74 a 4.8 4.8 0 0 0 0.38 0.7 l 0.22 0.29 l 0.28 -0.2 a 4.51 4.51 0 0 0 0.73 -0.89 a 7.51 7.51 0 0 0 0.68 -1.33 c 1.63 -4 3.49 -9.47 5.4 -13.17 l 0.23 -0.32 a 2.4 2.4 0 0 1 3.37 -0.27 l 13.64 11.57 Z M 50.13 108.19 A 105.56 105.56 0 0 1 30.87 87.71 H 15.16 a 51.5 51.5 0 0 0 12.61 12 a 52.81 52.81 0 0 0 8.89 4.8 s 0.07 0 0.11 0.07 a 49.13 49.13 0 0 0 9.64 3 c 1.23 0.24 2.49 0.45 3.75 0.62 Z M 11.89 82.73 H 27.7 a 50.6 50.6 0 0 1 -7 -23.44 H 5 a 55.75 55.75 0 0 0 1 7.94 A 48.27 48.27 0 0 0 9 77 a 54.16 54.16 0 0 0 2.86 5.76 Z M 5 54.31 H 20.75 a 54.38 54.38 0 0 1 7.77 -23.44 H 11.89 A 54.16 54.16 0 0 0 9 36.63 s 0 0.07 -0.07 0.1 a 49.91 49.91 0 0 0 -3 9.65 a 51.46 51.46 0 0 0 -1 7.93 Z M 15.13 25.9 H 31.72 A 117.72 117.72 0 0 1 50.46 5.35 c -1.39 0.17 -2.76 0.37 -4.08 0.65 a 48.36 48.36 0 0 0 -9.75 3 a 55.24 55.24 0 0 0 -8.89 4.8 a 51.5 51.5 0 0 0 -12.61 12 v 0 Z m 48 -20.55 A 114.63 114.63 0 0 1 81.88 25.9 h 16.6 a 48.63 48.63 0 0 0 -5 -5.76 a 49.81 49.81 0 0 0 -7.63 -6.27 A 53.27 53.27 0 0 0 77 9.06 s -0.06 0 -0.1 -0.06 a 49.15 49.15 0 0 0 -9.64 -3 c -1.36 -0.27 -2.73 -0.48 -4.09 -0.65 v 0 Z M 59.29 8.59 V 25.9 H 75.78 A 115.68 115.68 0 0 0 59.29 8.59 Z m -5 96.63 V 87.71 H 37 a 105.67 105.67 0 0 0 17.35 17.51 Z m 0 -79.32 V 8.59 A 116.3 116.3 0 0 0 37.82 25.9 Z" stroke-linecap="round" />
</g>
</svg>