<?xml version="1.0" encoding="UTF-8" standalone="no" ?>
<!DOCTYPE svg PUBLIC "-//W3C//DTD SVG 1.1//EN" "http://www.w3.org/Graphics/SVG/1.1/DTD/svg11.dtd">
<svg xmlns="http://www.w3.org/2000/svg" xmlns:xlink="http://www.w3.org/1999/xlink" version="1.1" width="120" height="120" viewBox="0 0 120 120" xml:space="preserve">
<desc>Created with Fabric.js 3.6.3</desc>
<defs>
</defs>
<g transform="matrix(0.24 0 0 0.21 62 60)"  >
<path style="stroke: none; stroke-width: 1; stroke-dasharray: none; stroke-linecap: butt; stroke-dashoffset: 0; stroke-linejoin: miter; stroke-miterlimit: 4; fill: rgb(211,244,255); fill-rule: nonzero; opacity: 1;"  transform=" translate(-203.5, -255.74)" d="M 375.05 22.17 C 375.05 9.98 365.06 0 352.88 0 H 22.16 C 9.98 0 0 9.98 0 22.17 v 410.19 c 0 12.19 9.98 22.17 22.16 22.17 h 247.22 l -31.85 -15.72 H 18.47 c -1.21 0 -2.32 -1.06 -2.32 -2.31 V 20.08 c 0 -1.25 1.11 -2.32 2.32 -2.32 h 338.71 c 1.24 0 2.31 1.13 2.31 2.32 v 318.14 l 15.56 -5.77 V 22.17 z M 247.08 406.62 l 153.04 -56.76 a 4.814 4.814 0 0 1 6.54 6.12 l -60.13 152.46 a 4.907 4.907 0 0 1 -2.45 2.59 c -2.4 1.13 -5.27 0.09 -6.39 -2.32 l -22.87 -48.89 l 47.39 -66.15 l -67.13 45.69 l -48.46 -23.92 a 4.802 4.802 0 0 1 -2.39 -2.65 c -0.91 -2.49 0.36 -5.26 2.85 -6.17 z M 53.11 54.77 h 12.85 v 50.22 H 53.11 V 54.77 z m 22.93 0 H 88 l 15.54 27.72 V 54.77 h 12.1 v 50.22 h -12.1 L 88.09 77.41 v 27.58 H 76.04 V 54.77 z m 44.87 0 h 13.39 l 9.33 36.14 l 9.21 -36.14 h 12.99 l -15.38 50.22 h -13.88 l -15.66 -50.22 z m 51.95 6.01 c 7.53 -9.12 24.09 -9.27 31.71 -0.14 c 6.61 7.96 7.12 24.12 3.15 33.28 c -1.62 3.76 -4 6.69 -7.08 8.77 c -6.1 4.14 -16.83 4.15 -23.13 0.44 c -3.06 -1.8 -5.56 -4.68 -7.45 -8.57 c -4.51 -9.27 -3.95 -25.62 2.8 -33.78 z m 9.47 30.09 c 3.07 4.35 9.69 4.49 12.77 0.06 c 3.05 -4.39 3.14 -17.54 -0.1 -22.02 c -3.17 -4.38 -9.52 -4.36 -12.65 0.05 c -3.19 4.5 -3.2 17.39 -0.02 21.91 z m 36.05 -36.1 h 12.85 v 50.22 h -12.85 V 54.77 z m 50.43 29.66 l 11.23 4.11 c -0.75 3.8 -1.95 7.01 -3.57 9.55 c -1.62 2.54 -3.64 4.49 -6.04 5.78 s -5.46 1.95 -9.17 1.95 c -4.52 0 -8.21 -0.79 -11.06 -2.36 c -2.86 -1.58 -5.33 -4.4 -7.39 -8.38 c -2.07 -3.98 -3.12 -9.1 -3.12 -15.32 c 0 -8.3 1.82 -14.7 5.47 -19.15 c 3.64 -4.45 8.82 -6.68 15.5 -6.68 c 5.22 0 9.34 1.28 12.32 3.83 c 2.97 2.55 5.21 6.48 6.66 11.79 l -11.29 3.04 c -0.4 -1.53 -0.82 -2.65 -1.25 -3.34 c -0.71 -1.17 -1.61 -2.1 -2.63 -2.72 c -1.03 -0.64 -2.2 -0.96 -3.49 -0.96 c -2.91 0 -5.14 1.43 -6.68 4.23 c -1.15 2.08 -1.76 5.39 -1.76 9.87 c 0 5.56 0.7 9.37 2.1 11.42 c 1.38 2.06 3.35 3.1 5.88 3.1 c 2.45 0 4.31 -0.85 5.56 -2.5 c 1.24 -1.66 2.17 -4.09 2.73 -7.26 z m 18.22 -29.66 h 34.28 V 65.5 h -21.43 v 8 h 19.87 v 10.23 h -19.87 v 9.89 h 22.06 v 11.37 h -34.91 V 54.77 z M 95.4 184.82 c -3.95 0 -7.16 -3.22 -7.16 -7.17 c 0 -3.96 3.21 -7.17 7.16 -7.17 h 142.71 c 3.95 0 7.16 3.21 7.16 7.17 c 0 3.95 -3.21 7.17 -7.16 7.17 H 95.4 z m 0 117.41 a 7.166 7.166 0 0 1 0 -14.33 h 174.75 a 7.17 7.17 0 0 1 7.17 7.17 c 0 3.95 -3.21 7.16 -7.17 7.16 H 95.4 z m 0 -43.48 c -3.94 0 -7.15 -3.22 -7.15 -7.16 c 0 -3.95 3.21 -7.16 7.15 -7.16 h 142.71 c 3.95 0 7.16 3.21 7.16 7.16 c 0 3.94 -3.21 7.16 -7.16 7.16 H 95.4 z m 210.33 -36.28 H 69.31 v 142.27 h 218.72 l -38.63 14.33 H 62.15 a 7.17 7.17 0 0 1 -7.17 -7.17 V 141.52 c 0 -3.95 3.21 -7.17 7.17 -7.17 H 312.9 c 3.95 0 7.17 3.22 7.17 7.17 v 211.33 l -14.34 5.32 v -135.7 z M 69.31 208.14 h 236.42 v -59.45 H 69.31 v 59.45 z" stroke-linecap="round" />
</g>
</svg>