<?xml version="1.0" encoding="UTF-8" standalone="no" ?>
<!DOCTYPE svg PUBLIC "-//W3C//DTD SVG 1.1//EN" "http://www.w3.org/Graphics/SVG/1.1/DTD/svg11.dtd">
<svg xmlns="http://www.w3.org/2000/svg" xmlns:xlink="http://www.w3.org/1999/xlink" version="1.1" width="120" height="120" viewBox="0 0 120 120" xml:space="preserve">
<desc>Created with Fabric.js 3.6.3</desc>
<defs>
</defs>
<g transform="matrix(0.78 0 0 0.85 60.5 59.5)" id="Layer_1"  >
<path style="stroke: none; stroke-width: 1; stroke-dasharray: none; stroke-linecap: butt; stroke-dashoffset: 0; stroke-linejoin: miter; stroke-miterlimit: 4; fill: rgb(211,244,255); fill-rule: evenodd; opacity: 1;"  transform=" translate(-61.44, -60.96)" d="M 30.11 3.73 a 1.21 1.21 0 1 1 0 2.42 a 1.23 1.23 0 0 1 -1.22 -1.21 a 1.22 1.22 0 0 1 1.22 -1.21 Z M 79.39 86.65 a 0.36 0.36 0 0 1 -0.48 0 l -2.54 -2.53 l -1.21 2.4 c -0.36 0.72 -1 1 -1.31 0.18 L 70.2 76.33 c -0.08 -0.21 0 -0.3 0.22 -0.22 l 10.37 3.65 c 0.87 0.3 0.54 0.95 -0.18 1.31 l -2.4 1.21 l 2.53 2.53 a 0.38 0.38 0 0 1 0 0.49 l -1.35 1.35 Z M 43.66 71.88 H 79.22 a 1.59 1.59 0 0 1 1.57 1.58 v 4.06 l -9.67 -3.4 a 2.27 2.27 0 0 0 -1 -0.14 a 2.21 2.21 0 0 0 -2.06 1.89 l 0 0.18 a 2.64 2.64 0 0 0 0.14 1 l 2.23 6.3 H 43.66 a 1.58 1.58 0 0 1 -1.57 -1.58 v -8.3 a 1.58 1.58 0 0 1 1.57 -1.58 Z M 3.52 14.43 H 10 v 5 H 8.85 a 3.11 3.11 0 0 0 -3.11 3.11 V 86.11 a 3.12 3.12 0 0 0 3.11 3.11 h 5.59 V 2.8 a 2.83 2.83 0 0 1 0.82 -2 a 2.85 2.85 0 0 1 2 -0.82 h 88.4 a 2.82 2.82 0 0 1 2.8 2.8 V 89.22 H 114 a 3.12 3.12 0 0 0 3.11 -3.11 V 22.57 A 3.11 3.11 0 0 0 114 19.46 H 112.9 v -5 h 6.46 A 3.53 3.53 0 0 1 122.88 18 V 99.14 a 3.53 3.53 0 0 1 -3.52 3.53 H 3.52 A 3.53 3.53 0 0 1 0 99.14 V 18 a 3.53 3.53 0 0 1 3.52 -3.52 Z m 13.3 74.79 h 89.23 V 9 H 16.82 V 89.22 Z m 31.7 -71 H 46.63 v 2.58 H 44.4 v -7 H 49 l -0.28 1.78 H 46.63 v 0.94 h 1.89 v 1.66 Z m 3 -0.9 a 4.43 4.43 0 0 1 0.71 -2.78 a 3.21 3.21 0 0 1 2.58 -0.87 a 3.18 3.18 0 0 1 2.57 0.87 a 4.43 4.43 0 0 1 0.71 2.78 a 7.18 7.18 0 0 1 -0.15 1.6 A 2.82 2.82 0 0 1 57.46 20 a 2 2 0 0 1 -1 0.7 a 5.72 5.72 0 0 1 -3.21 0 a 2 2 0 0 1 -1 -0.7 a 2.82 2.82 0 0 1 -0.52 -1.12 a 7.18 7.18 0 0 1 -0.15 -1.6 Z M 54 16.14 V 19 h 0.93 a 1.57 1.57 0 0 0 0.66 -0.1 c 0.14 -0.07 0.21 -0.24 0.21 -0.49 v -2.9 h -0.94 a 1.52 1.52 0 0 0 -0.65 0.11 c -0.14 0.07 -0.21 0.23 -0.21 0.49 Z m 13.29 4.63 H 64.79 l -0.92 -2.07 h -0.48 v 2.07 H 61.17 v -7 h 3.51 a 2.13 2.13 0 0 1 2.39 2.44 a 2.23 2.23 0 0 1 -1 2.2 l 1.2 2.32 Z m -3.85 -5.18 V 17 h 0.52 a 1.63 1.63 0 0 0 0.58 -0.08 a 0.4 0.4 0 0 0 0.19 -0.39 v -0.45 a 0.4 0.4 0 0 0 -0.19 -0.39 a 1.63 1.63 0 0 0 -0.58 -0.08 Z m 8.93 5.18 H 70 l 0.43 -7 h 2.91 l 0.86 3.54 h 0.08 l 0.87 -3.54 h 2.91 l 0.42 7 H 76.14 L 76 17.39 h -0.08 l -0.84 3.38 H 73.38 l -0.86 -3.38 h -0.06 l -0.14 3.38 Z M 23.13 26.13 H 99.75 a 2.51 2.51 0 0 1 1.76 0.73 h 0 a 2.5 2.5 0 0 1 0.73 1.76 v 5.64 a 2.47 2.47 0 0 1 -0.73 1.75 h 0 a 2.48 2.48 0 0 1 -1.76 0.73 H 23.13 A 2.51 2.51 0 0 1 21.37 36 h 0 a 2.47 2.47 0 0 1 -0.73 -1.75 V 28.62 a 2.51 2.51 0 0 1 0.73 -1.76 h 0 a 2.52 2.52 0 0 1 1.76 -0.73 Z m 0 29.63 H 99.75 a 2.51 2.51 0 0 1 1.76 0.73 h 0 a 2.48 2.48 0 0 1 0.73 1.76 v 5.63 a 2.5 2.5 0 0 1 -0.73 1.76 h 0 a 2.48 2.48 0 0 1 -1.76 0.73 H 23.13 a 2.51 2.51 0 0 1 -1.76 -0.73 h 0 a 2.48 2.48 0 0 1 -0.73 -1.76 V 58.25 a 2.5 2.5 0 0 1 0.73 -1.76 h 0 a 2.48 2.48 0 0 1 1.76 -0.73 Z m 77.15 1.63 H 22.6 a 0.31 0.31 0 0 0 -0.33 0.33 v 6.69 a 0.31 0.31 0 0 0 0.33 0.33 h 77.68 a 0.32 0.32 0 0 0 0.23 -0.09 a 0.35 0.35 0 0 0 0.1 -0.24 V 57.72 a 0.35 0.35 0 0 0 -0.1 -0.24 a 0.32 0.32 0 0 0 -0.23 -0.09 Z M 23.13 40.94 H 99.75 a 2.51 2.51 0 0 1 1.76 0.73 h 0 a 2.47 2.47 0 0 1 0.73 1.75 v 5.64 a 2.5 2.5 0 0 1 -0.73 1.76 h 0 a 2.48 2.48 0 0 1 -1.76 0.73 H 23.13 a 2.51 2.51 0 0 1 -1.76 -0.73 h 0 a 2.5 2.5 0 0 1 -0.73 -1.76 V 43.43 a 2.47 2.47 0 0 1 0.73 -1.75 h 0 a 2.52 2.52 0 0 1 1.76 -0.73 Z m 77.15 1.63 H 22.6 a 0.35 0.35 0 0 0 -0.24 0.1 a 0.32 0.32 0 0 0 -0.09 0.24 V 49.6 a 0.32 0.32 0 0 0 0.09 0.23 a 0.35 0.35 0 0 0 0.24 0.1 h 77.68 a 0.34 0.34 0 0 0 0.33 -0.33 V 42.91 a 0.33 0.33 0 0 0 -0.1 -0.24 a 0.33 0.33 0 0 0 -0.23 -0.1 Z m 0 -14.81 H 22.6 a 0.35 0.35 0 0 0 -0.24 0.1 a 0.32 0.32 0 0 0 -0.09 0.23 v 6.7 a 0.32 0.32 0 0 0 0.09 0.23 a 0.35 0.35 0 0 0 0.24 0.1 h 77.68 a 0.34 0.34 0 0 0 0.33 -0.33 v -6.7 a 0.34 0.34 0 0 0 -0.33 -0.33 Z m -75.39 -24 a 1.21 1.21 0 1 1 -1.22 1.21 a 1.22 1.22 0 0 1 1.22 -1.21 Z m -5.22 0 a 1.21 1.21 0 1 1 -1.21 1.21 a 1.2 1.2 0 0 1 1.21 -1.21 Z m 57.75 103.8 c 0.08 5.53 2.36 10.48 8.53 14.38 h -49 c 5 -3.6 8.55 -8 8.53 -14.38 Z" stroke-linecap="round" />
</g>
</svg>