<?xml version="1.0" encoding="UTF-8" standalone="no" ?>
<!DOCTYPE svg PUBLIC "-//W3C//DTD SVG 1.1//EN" "http://www.w3.org/Graphics/SVG/1.1/DTD/svg11.dtd">
<svg xmlns="http://www.w3.org/2000/svg" xmlns:xlink="http://www.w3.org/1999/xlink" version="1.1" width="120" height="120" viewBox="0 0 120 120" xml:space="preserve">
<desc>Created with Fabric.js 3.6.3</desc>
<defs>
</defs>
<g transform="matrix(0.91 0 0 0.86 60 57.89)" id="Layer_1"  >
<path style="stroke: none; stroke-width: 1; stroke-dasharray: none; stroke-linecap: butt; stroke-dashoffset: 0; stroke-linejoin: miter; stroke-miterlimit: 4; fill: rgb(211,244,255); fill-rule: nonzero; opacity: 1;"  transform=" translate(-47.96, -61.44)" d="M 37.06 5 v 5 a 2.52 2.52 0 0 1 -2.28 2.5 a 2.86 2.86 0 0 1 -0.89 0.14 H 24.6 V 23 H 71.29 V 12.68 H 62 a 2.81 2.81 0 0 1 -0.89 -0.14 A 2.52 2.52 0 0 1 58.84 10 V 5 Z M 18.4 49.25 a 2.25 2.25 0 1 1 3.74 -2.51 l 1.23 1.82 l 4.87 -5.92 a 2.25 2.25 0 0 1 3.48 2.86 L 25 53.7 a 2 2 0 0 1 -0.54 0.5 a 2.24 2.24 0 0 1 -3.12 -0.61 L 18.4 49.25 Z m 0 23.28 A 2.25 2.25 0 1 1 22.14 70 l 1.23 1.82 l 4.87 -5.93 a 2.25 2.25 0 0 1 3.48 2.86 L 25 77 a 1.88 1.88 0 0 1 -0.54 0.51 a 2.24 2.24 0 0 1 -3.12 -0.62 L 18.4 72.53 Z m 0 24.2 a 2.25 2.25 0 1 1 3.74 -2.51 l 1.23 1.83 l 4.87 -5.93 A 2.25 2.25 0 0 1 31.72 93 L 25 101.18 a 2 2 0 0 1 -0.54 0.5 a 2.24 2.24 0 0 1 -3.12 -0.61 L 18.4 96.73 Z m 5 -68.57 a 3.85 3.85 0 0 1 -2.68 -1.11 c -0.09 -0.09 -0.14 -0.18 -0.23 -0.27 a 3.94 3.94 0 0 1 -0.89 -2.41 V 19.28 h -14 a 0.49 0.49 0 0 0 -0.4 0.18 a 0.67 0.67 0 0 0 -0.18 0.4 v 97.4 a 0.42 0.42 0 0 0 0.18 0.4 a 0.56 0.56 0 0 0 0.4 0.18 H 90.32 a 0.56 0.56 0 0 0 0.4 -0.18 a 0.44 0.44 0 0 0 0.18 -0.4 V 19.86 a 0.67 0.67 0 0 0 -0.18 -0.4 a 0.5 0.5 0 0 0 -0.4 -0.18 h -14 v 5.09 a 3.89 3.89 0 0 1 -0.9 2.41 c -0.08 0.09 -0.13 0.18 -0.22 0.27 a 3.85 3.85 0 0 1 -2.68 1.11 Z M 5.62 122.88 A 5.63 5.63 0 0 1 0 117.26 V 19.86 a 5.63 5.63 0 0 1 5.62 -5.62 h 14 V 11.47 A 3.79 3.79 0 0 1 23.4 7.68 h 8.66 V 4.2 a 4.14 4.14 0 0 1 1.25 -2.95 A 4.13 4.13 0 0 1 36.25 0 h 23.4 a 4.15 4.15 0 0 1 2.94 1.25 a 4.14 4.14 0 0 1 1.25 3 V 7.68 H 72.5 a 3.79 3.79 0 0 1 3.79 3.79 v 2.77 h 14 a 5.63 5.63 0 0 1 5.63 5.62 v 97.4 a 5.63 5.63 0 0 1 -5.63 5.62 Z M 76.37 99.6 a 2.55 2.55 0 0 0 0 -5.09 H 42.56 a 2.55 2.55 0 0 0 0 5.09 H 76.37 Z m 0 -48.8 a 2.55 2.55 0 0 0 0 -5.09 H 42.56 a 2.55 2.55 0 0 0 0 5.09 Z m 0 24.07 a 2.55 2.55 0 0 0 0 -5.09 H 42.56 a 2.55 2.55 0 0 0 0 5.09 Z" stroke-linecap="round" />
</g>
</svg>